<svg width="35" height="15" viewBox="0 0 35 15" fill="none" xmlns="http://www.w3.org/2000/svg">
<path d="M7.99805 10.6934C7.99805 10.4395 7.95898 10.2116 7.88086 10.0098C7.80924 9.80143 7.67253 9.61263 7.4707 9.44336C7.26888 9.26758 6.98568 9.09505 6.62109 8.92578C6.25651 8.75651 5.78451 8.58073 5.20508 8.39844C4.56055 8.1901 3.94857 7.95573 3.36914 7.69531C2.79622 7.4349 2.28841 7.13216 1.8457 6.78711C1.40951 6.43555 1.06445 6.02865 0.810547 5.56641C0.563151 5.10417 0.439453 4.56706 0.439453 3.95508C0.439453 3.36263 0.569661 2.82552 0.830078 2.34375C1.09049 1.85547 1.45508 1.4388 1.92383 1.09375C2.39258 0.742188 2.94596 0.472005 3.58398 0.283203C4.22852 0.094401 4.9349 0 5.70312 0C6.7513 0 7.66602 0.188802 8.44727 0.566406C9.22852 0.94401 9.83398 1.46159 10.2637 2.11914C10.6999 2.77669 10.918 3.52865 10.918 4.375H8.00781C8.00781 3.95833 7.91992 3.59375 7.74414 3.28125C7.57487 2.96224 7.31445 2.71159 6.96289 2.5293C6.61784 2.34701 6.18164 2.25586 5.6543 2.25586C5.14648 2.25586 4.72331 2.33398 4.38477 2.49023C4.04622 2.63997 3.79232 2.84505 3.62305 3.10547C3.45378 3.35938 3.36914 3.64583 3.36914 3.96484C3.36914 4.20573 3.42773 4.42383 3.54492 4.61914C3.66862 4.81445 3.85091 4.99674 4.0918 5.16602C4.33268 5.33529 4.62891 5.49479 4.98047 5.64453C5.33203 5.79427 5.73893 5.94076 6.20117 6.08398C6.97591 6.31836 7.65625 6.58203 8.24219 6.875C8.83464 7.16797 9.32943 7.49674 9.72656 7.86133C10.1237 8.22591 10.4232 8.63932 10.625 9.10156C10.8268 9.5638 10.9277 10.0879 10.9277 10.6738C10.9277 11.2923 10.8073 11.8457 10.5664 12.334C10.3255 12.8223 9.97721 13.2357 9.52148 13.5742C9.06576 13.9128 8.52214 14.1699 7.89062 14.3457C7.25911 14.5215 6.55273 14.6094 5.77148 14.6094C5.06836 14.6094 4.375 14.5182 3.69141 14.3359C3.00781 14.1471 2.38607 13.8639 1.82617 13.4863C1.27279 13.1087 0.830078 12.627 0.498047 12.041C0.166016 11.4551 0 10.7617 0 9.96094H2.93945C2.93945 10.4036 3.00781 10.778 3.14453 11.084C3.28125 11.39 3.47331 11.6374 3.7207 11.8262C3.97461 12.015 4.27409 12.1517 4.61914 12.2363C4.9707 12.321 5.35482 12.3633 5.77148 12.3633C6.2793 12.3633 6.69596 12.2917 7.02148 12.1484C7.35352 12.0052 7.59766 11.8066 7.75391 11.5527C7.91667 11.2988 7.99805 11.0124 7.99805 10.6934ZM15.8496 0.195312V14.4141H12.9199V0.195312H15.8496ZM21.5137 6.26953V8.55469H15.0488V6.26953H21.5137ZM22.1973 0.195312V2.49023H15.0488V0.195312H22.1973ZM27.8809 2.62695L24.0137 14.4141H20.8984L26.1816 0.195312H28.1641L27.8809 2.62695ZM31.0938 14.4141L27.2168 2.62695L26.9043 0.195312H28.9062L34.2188 14.4141H31.0938ZM30.918 9.12109V11.416H23.4082V9.12109H30.918Z" fill="#FF0000"/>
</svg>
