<svg width="411" height="43" viewBox="0 0 411 43" fill="none" xmlns="http://www.w3.org/2000/svg">
<path d="M10 6.25H401C403.623 6.25 405.75 8.37665 405.75 11V33C405.75 38.3848 401.385 42.75 396 42.75H15C9.61522 42.75 5.25 38.3848 5.25 33V11C5.25 8.37665 7.37665 6.25 10 6.25Z" fill="#FF0000" fill-opacity="0.3" stroke="#FF0000" stroke-width="0.5"/>
<path d="M10 6.25H401C403.623 6.25 405.75 8.37665 405.75 11V33C405.75 38.3848 401.385 42.75 396 42.75H15C9.61522 42.75 5.25 38.3848 5.25 33V11C5.25 8.37665 7.37665 6.25 10 6.25Z" fill="#FF0000" fill-opacity="0.3" stroke="#FF0000" stroke-width="0.5"/>
<rect x="0.25" y="0.25" width="410.5" height="29.5" rx="14.75" fill="#F4F5F7" stroke="#D7D7D7" stroke-width="0.5"/>
<rect x="286.25" y="5.25" width="119.5" height="19.5" rx="9.75" fill="#F4F5F7" stroke="#D7D7D7" stroke-width="0.5"/>
<path d="M304.735 14.1187V14.8877H298.253V14.1187H304.735ZM298.466 9.33594V20H297.565V9.33594H298.466ZM305.46 9.33594V20H304.56V9.33594H305.46ZM311.042 20.1465C310.524 20.1465 310.048 20.0513 309.613 19.8608C309.184 19.6704 308.808 19.4019 308.485 19.0552C308.168 18.7085 307.921 18.2983 307.746 17.8247C307.575 17.3462 307.489 16.8237 307.489 16.2573V15.9424C307.489 15.332 307.58 14.7803 307.76 14.2871C307.941 13.7939 308.19 13.3716 308.507 13.02C308.825 12.6685 309.186 12.3999 309.591 12.2144C310.001 12.0239 310.431 11.9287 310.88 11.9287C311.383 11.9287 311.83 12.019 312.221 12.1997C312.611 12.3755 312.938 12.627 313.202 12.9541C313.471 13.2764 313.673 13.6597 313.81 14.104C313.947 14.5435 314.015 15.0293 314.015 15.5615V16.0962H308.017V15.3491H313.144V15.2466C313.134 14.8022 313.043 14.3872 312.873 14.0015C312.707 13.6108 312.458 13.2935 312.125 13.0493C311.793 12.8052 311.378 12.6831 310.88 12.6831C310.509 12.6831 310.167 12.7612 309.855 12.9175C309.547 13.0737 309.281 13.2983 309.057 13.5913C308.837 13.8794 308.666 14.2236 308.544 14.624C308.427 15.0195 308.368 15.459 308.368 15.9424V16.2573C308.368 16.6968 308.432 17.1069 308.559 17.4878C308.69 17.8638 308.876 18.1958 309.115 18.4839C309.359 18.772 309.647 18.9966 309.979 19.1577C310.312 19.3188 310.678 19.3994 311.078 19.3994C311.547 19.3994 311.962 19.314 312.323 19.1431C312.685 18.9673 313.009 18.6914 313.297 18.3154L313.847 18.7402C313.676 18.9941 313.461 19.2285 313.202 19.4434C312.948 19.6582 312.643 19.8291 312.287 19.9561C311.93 20.083 311.515 20.1465 311.042 20.1465ZM324.774 12.0752V12.8369H320.138V12.0752H324.774ZM320.336 12.0752V20H319.464V12.0752H320.336ZM325.492 12.0752V20H324.613V12.0752H325.492ZM327.36 16.1621V15.9204C327.36 15.3442 327.443 14.812 327.609 14.3237C327.775 13.8354 328.012 13.4131 328.319 13.0566C328.632 12.7002 329.005 12.4243 329.44 12.229C329.875 12.0288 330.358 11.9287 330.89 11.9287C331.427 11.9287 331.913 12.0288 332.348 12.229C332.782 12.4243 333.156 12.7002 333.468 13.0566C333.781 13.4131 334.02 13.8354 334.186 14.3237C334.352 14.812 334.435 15.3442 334.435 15.9204V16.1621C334.435 16.7383 334.352 17.2705 334.186 17.7588C334.02 18.2422 333.781 18.6621 333.468 19.0186C333.161 19.375 332.79 19.6533 332.355 19.8535C331.92 20.0488 331.437 20.1465 330.905 20.1465C330.368 20.1465 329.882 20.0488 329.447 19.8535C329.013 19.6533 328.639 19.375 328.327 19.0186C328.014 18.6621 327.775 18.2422 327.609 17.7588C327.443 17.2705 327.36 16.7383 327.36 16.1621ZM328.231 15.9204V16.1621C328.231 16.5967 328.29 17.0093 328.407 17.3999C328.524 17.7856 328.695 18.1299 328.92 18.4326C329.145 18.7305 329.423 18.9648 329.755 19.1357C330.087 19.3066 330.47 19.3921 330.905 19.3921C331.334 19.3921 331.713 19.3066 332.04 19.1357C332.372 18.9648 332.65 18.7305 332.875 18.4326C333.1 18.1299 333.268 17.7856 333.38 17.3999C333.498 17.0093 333.556 16.5967 333.556 16.1621V15.9204C333.556 15.4907 333.498 15.083 333.38 14.6973C333.268 14.3115 333.097 13.9673 332.868 13.6646C332.643 13.3618 332.365 13.1226 332.033 12.9468C331.701 12.771 331.32 12.6831 330.89 12.6831C330.46 12.6831 330.08 12.771 329.748 12.9468C329.42 13.1226 329.142 13.3618 328.913 13.6646C328.688 13.9673 328.517 14.3115 328.4 14.6973C328.288 15.083 328.231 15.4907 328.231 15.9204ZM337.13 12.0752H338.002L337.87 14.9316C337.836 15.6934 337.75 16.355 337.614 16.9165C337.482 17.4731 337.318 17.9492 337.123 18.3447C336.928 18.7354 336.713 19.0649 336.479 19.3335C336.249 19.5972 336.015 19.8193 335.775 20H335.299L335.314 19.2529L335.534 19.2456C335.675 19.0747 335.822 18.8818 335.973 18.667C336.129 18.4473 336.278 18.1787 336.42 17.8613C336.562 17.5439 336.684 17.1484 336.786 16.6748C336.889 16.2012 336.957 15.6201 336.991 14.9316L337.13 12.0752ZM337.416 12.0752H341.803V20H340.932V12.8955H337.416V12.0752ZM334.962 19.2456H342.631V22.3291H341.752V20H335.797V22.3291H334.962V19.2456ZM345.253 12.0752V20H344.374V12.0752H345.253ZM350.468 12.0752L346.835 16.3672H344.945L344.85 15.5835H346.461L349.362 12.0752H350.468ZM349.677 20L346.374 16.25L346.93 15.5762L350.834 20H349.677ZM357.477 12.0752V12.8369H353.463V12.0752H357.477ZM358.188 12.0752V20H357.316V12.0752H358.188ZM353.229 12.0752H354.101L353.925 15.7886C353.896 16.3892 353.847 16.9214 353.778 17.3853C353.715 17.8491 353.627 18.2471 353.515 18.5791C353.402 18.9062 353.258 19.1748 353.083 19.3848C352.912 19.5947 352.704 19.751 352.46 19.8535C352.216 19.9512 351.93 20 351.603 20H351.273V19.209L351.544 19.2017C351.754 19.1919 351.938 19.1479 352.094 19.0698C352.255 18.9917 352.392 18.8672 352.504 18.6963C352.621 18.5254 352.716 18.3008 352.79 18.0225C352.868 17.7441 352.929 17.4048 352.973 17.0044C353.021 16.5991 353.058 16.123 353.083 15.5762L353.229 12.0752ZM364.472 15.6787V16.4258H360.766V15.6787H364.472ZM361.52 12.0752V20H360.648V12.0752H361.52ZM363.769 16.1621V15.9204C363.769 15.3442 363.852 14.812 364.018 14.3237C364.184 13.8354 364.42 13.4131 364.728 13.0566C365.041 12.7002 365.414 12.4243 365.849 12.229C366.283 12.0288 366.767 11.9287 367.299 11.9287C367.836 11.9287 368.322 12.0288 368.756 12.229C369.191 12.4243 369.564 12.7002 369.877 13.0566C370.189 13.4131 370.429 13.8354 370.595 14.3237C370.761 14.812 370.844 15.3442 370.844 15.9204V16.1621C370.844 16.7383 370.761 17.2705 370.595 17.7588C370.429 18.2422 370.189 18.6621 369.877 19.0186C369.569 19.375 369.198 19.6533 368.764 19.8535C368.329 20.0488 367.846 20.1465 367.313 20.1465C366.776 20.1465 366.291 20.0488 365.856 19.8535C365.421 19.6533 365.048 19.375 364.735 19.0186C364.423 18.6621 364.184 18.2422 364.018 17.7588C363.852 17.2705 363.769 16.7383 363.769 16.1621ZM364.647 15.9204V16.1621C364.647 16.5967 364.704 17.0093 364.816 17.3999C364.933 17.7856 365.104 18.1299 365.329 18.4326C365.558 18.7305 365.836 18.9648 366.164 19.1357C366.496 19.3066 366.879 19.3921 367.313 19.3921C367.743 19.3921 368.122 19.3066 368.449 19.1357C368.781 18.9648 369.059 18.7305 369.284 18.4326C369.508 18.1299 369.679 17.7856 369.796 17.3999C369.914 17.0093 369.972 16.5967 369.972 16.1621V15.9204C369.972 15.4907 369.914 15.083 369.796 14.6973C369.679 14.3115 369.506 13.9673 369.276 13.6646C369.052 13.3618 368.773 13.1226 368.441 12.9468C368.109 12.771 367.729 12.6831 367.299 12.6831C366.869 12.6831 366.491 12.771 366.164 12.9468C365.836 13.1226 365.558 13.3618 365.329 13.6646C365.104 13.9673 364.933 14.3115 364.816 14.6973C364.704 15.083 364.647 15.4907 364.647 15.9204ZM378.388 12.0752V20H377.516V12.0752H378.388ZM378.087 15.6714V16.4258C377.863 16.5332 377.604 16.6357 377.311 16.7334C377.023 16.8311 376.718 16.9116 376.396 16.9751C376.078 17.0337 375.761 17.063 375.443 17.063C374.789 17.063 374.235 16.9678 373.781 16.7773C373.332 16.5869 372.992 16.2744 372.763 15.8398C372.533 15.4004 372.418 14.8145 372.418 14.082V12.0679H373.29V14.082C373.29 14.6436 373.368 15.0879 373.524 15.415C373.681 15.7373 373.917 15.9668 374.235 16.1035C374.552 16.2402 374.955 16.3086 375.443 16.3086C375.78 16.2988 376.115 16.2646 376.447 16.2061C376.779 16.1426 377.086 16.0645 377.37 15.9717C377.658 15.874 377.897 15.7739 378.087 15.6714ZM383.8 20.1465C383.283 20.1465 382.807 20.0513 382.372 19.8608C381.942 19.6704 381.566 19.4019 381.244 19.0552C380.927 18.7085 380.68 18.2983 380.504 17.8247C380.333 17.3462 380.248 16.8237 380.248 16.2573V15.9424C380.248 15.332 380.338 14.7803 380.519 14.2871C380.7 13.7939 380.949 13.3716 381.266 13.02C381.583 12.6685 381.945 12.3999 382.35 12.2144C382.76 12.0239 383.19 11.9287 383.639 11.9287C384.142 11.9287 384.589 12.019 384.979 12.1997C385.37 12.3755 385.697 12.627 385.961 12.9541C386.229 13.2764 386.432 13.6597 386.569 14.104C386.706 14.5435 386.774 15.0293 386.774 15.5615V16.0962H380.775V15.3491H385.902V15.2466C385.893 14.8022 385.802 14.3872 385.631 14.0015C385.465 13.6108 385.216 13.2935 384.884 13.0493C384.552 12.8052 384.137 12.6831 383.639 12.6831C383.268 12.6831 382.926 12.7612 382.614 12.9175C382.306 13.0737 382.04 13.2983 381.815 13.5913C381.596 13.8794 381.425 14.2236 381.303 14.624C381.186 15.0195 381.127 15.459 381.127 15.9424V16.2573C381.127 16.6968 381.19 17.1069 381.317 17.4878C381.449 17.8638 381.635 18.1958 381.874 18.4839C382.118 18.772 382.406 18.9966 382.738 19.1577C383.07 19.3188 383.437 19.3994 383.837 19.3994C384.306 19.3994 384.721 19.314 385.082 19.1431C385.443 18.9673 385.768 18.6914 386.056 18.3154L386.605 18.7402C386.435 18.9941 386.22 19.2285 385.961 19.4434C385.707 19.6582 385.402 19.8291 385.045 19.9561C384.689 20.083 384.274 20.1465 383.8 20.1465ZM393.908 15.6201V16.3672H389.206V15.6201H393.908ZM389.433 12.0752V20H388.561V12.0752H389.433ZM394.582 12.0752V20H393.703V12.0752H394.582Z" fill="black"/>
<path d="M84.8896 19.209L84.8237 22.5708H83.9961V20H82.9487V19.209H84.8896ZM76.0054 20V9.33594H76.9062V19.231H82.9414V9.33594H83.8423V20H76.0054ZM87.4678 18.5791L91.7524 12.0752H92.6313V20H91.7524V13.4961L87.4678 20H86.6035V12.0752H87.4678V18.5791ZM103.889 16.1035V16.2573C103.889 16.8384 103.825 17.3682 103.698 17.8467C103.576 18.3203 103.393 18.7305 103.149 19.0771C102.91 19.4238 102.612 19.6899 102.255 19.8755C101.904 20.061 101.501 20.1538 101.047 20.1538C100.72 20.1538 100.429 20.1123 100.175 20.0293C99.9214 19.9463 99.7041 19.834 99.5234 19.6924C99.3477 19.5508 99.2061 19.3872 99.0986 19.2017C98.9961 19.0161 98.9253 18.8232 98.8862 18.623V13.5693C98.9351 13.335 99.0132 13.1201 99.1206 12.9248C99.228 12.7246 99.3696 12.5513 99.5454 12.4048C99.7212 12.2534 99.9312 12.1362 100.175 12.0532C100.419 11.9702 100.705 11.9287 101.032 11.9287C101.398 11.9287 101.733 11.9946 102.036 12.1265C102.338 12.2534 102.604 12.439 102.834 12.6831C103.063 12.9224 103.256 13.2129 103.413 13.5547C103.569 13.8965 103.686 14.2822 103.764 14.7119C103.847 15.1416 103.889 15.6055 103.889 16.1035ZM103.017 16.2573V16.1035C103.017 15.7227 102.99 15.3613 102.937 15.0195C102.883 14.6777 102.8 14.3652 102.688 14.082C102.575 13.7939 102.431 13.5474 102.255 13.3423C102.084 13.1323 101.879 12.9712 101.64 12.8589C101.406 12.7417 101.137 12.6831 100.834 12.6831C100.498 12.6831 100.227 12.7246 100.021 12.8076C99.8164 12.8906 99.6626 12.9907 99.5601 13.1079C99.4575 13.2251 99.3843 13.3325 99.3403 13.4302V18.8062C99.394 18.8794 99.4795 18.9624 99.5967 19.0552C99.7188 19.1479 99.8823 19.2285 100.087 19.2969C100.292 19.3652 100.546 19.3994 100.849 19.3994C101.225 19.3994 101.55 19.3213 101.823 19.165C102.097 19.0088 102.321 18.7891 102.497 18.5059C102.673 18.2227 102.802 17.8906 102.885 17.5098C102.973 17.1289 103.017 16.7114 103.017 16.2573ZM94.6455 16.2573V16.1035C94.6455 15.6055 94.6846 15.1416 94.7627 14.7119C94.8457 14.2822 94.9653 13.8965 95.1216 13.5547C95.2827 13.2129 95.478 12.9224 95.7075 12.6831C95.937 12.439 96.2031 12.2534 96.5059 12.1265C96.8086 11.9946 97.1431 11.9287 97.5093 11.9287C97.8315 11.9287 98.1123 11.9702 98.3516 12.0532C98.5957 12.1362 98.8032 12.2534 98.9741 12.4048C99.145 12.5513 99.2842 12.7246 99.3916 12.9248C99.499 13.1201 99.5796 13.335 99.6333 13.5693V18.5571C99.5942 18.7671 99.521 18.9697 99.4136 19.165C99.311 19.3555 99.1719 19.5264 98.9961 19.6777C98.8252 19.8242 98.6128 19.939 98.3589 20.022C98.1099 20.1099 97.8218 20.1538 97.4946 20.1538C97.0405 20.1538 96.6353 20.061 96.2788 19.8755C95.9272 19.6899 95.6294 19.4238 95.3853 19.0771C95.146 18.7305 94.9629 18.3203 94.8359 17.8467C94.709 17.3682 94.6455 16.8384 94.6455 16.2573ZM95.5317 16.1035V16.2573C95.5317 16.7114 95.5708 17.1289 95.6489 17.5098C95.7319 17.8906 95.8589 18.2227 96.0298 18.5059C96.2056 18.7891 96.4277 19.0088 96.6963 19.165C96.9648 19.3213 97.2847 19.3994 97.6558 19.3994C97.9634 19.3994 98.2197 19.3628 98.4248 19.2896C98.6299 19.2114 98.791 19.1211 98.9082 19.0186C99.0303 18.916 99.1182 18.8232 99.1719 18.7402V13.4302C99.1279 13.3325 99.0547 13.2251 98.9521 13.1079C98.8496 12.9907 98.6958 12.8906 98.4907 12.8076C98.2905 12.7246 98.0171 12.6831 97.6704 12.6831C97.2944 12.6831 96.9697 12.771 96.6963 12.9468C96.4277 13.1226 96.2056 13.3667 96.0298 13.6792C95.8589 13.9917 95.7319 14.3555 95.6489 14.7705C95.5708 15.1807 95.5317 15.625 95.5317 16.1035ZM98.8057 23.0469V8.75H99.6846V23.0469H98.8057ZM106.73 13.5986V23.0469H105.852V12.0752H106.672L106.73 13.5986ZM112.238 15.9644V16.1182C112.238 16.709 112.17 17.251 112.033 17.7441C111.896 18.2373 111.699 18.6646 111.44 19.0259C111.186 19.3823 110.871 19.6582 110.495 19.8535C110.119 20.0488 109.692 20.1465 109.213 20.1465C108.74 20.1465 108.317 20.0732 107.946 19.9268C107.575 19.7803 107.255 19.5728 106.987 19.3042C106.723 19.0308 106.511 18.7134 106.35 18.3521C106.193 17.9858 106.083 17.5854 106.02 17.1509V15.1221C106.093 14.6436 106.213 14.209 106.379 13.8184C106.545 13.4277 106.757 13.0908 107.016 12.8076C107.28 12.5244 107.592 12.3071 107.954 12.1558C108.315 12.0044 108.728 11.9287 109.191 11.9287C109.675 11.9287 110.104 12.0239 110.48 12.2144C110.861 12.3999 111.181 12.6709 111.44 13.0273C111.704 13.3789 111.901 13.8037 112.033 14.3018C112.17 14.7949 112.238 15.3491 112.238 15.9644ZM111.359 16.1182V15.9644C111.359 15.5005 111.311 15.0708 111.213 14.6753C111.12 14.2798 110.976 13.9355 110.781 13.6426C110.59 13.3447 110.346 13.1128 110.048 12.9468C109.755 12.7808 109.406 12.6978 109.001 12.6978C108.581 12.6978 108.222 12.7686 107.924 12.9102C107.631 13.0469 107.387 13.23 107.192 13.4595C106.997 13.6841 106.843 13.9307 106.73 14.1992C106.618 14.4678 106.535 14.7314 106.481 14.9902V17.3267C106.574 17.6978 106.723 18.042 106.928 18.3594C107.133 18.6719 107.407 18.9233 107.749 19.1138C108.095 19.2993 108.518 19.3921 109.016 19.3921C109.416 19.3921 109.763 19.3091 110.056 19.1431C110.349 18.9771 110.59 18.7451 110.781 18.4473C110.976 18.1494 111.12 17.8027 111.213 17.4072C111.311 17.0117 111.359 16.582 111.359 16.1182ZM113.703 16.1621V15.9204C113.703 15.3442 113.786 14.812 113.952 14.3237C114.118 13.8354 114.355 13.4131 114.663 13.0566C114.975 12.7002 115.349 12.4243 115.783 12.229C116.218 12.0288 116.701 11.9287 117.233 11.9287C117.771 11.9287 118.256 12.0288 118.691 12.229C119.125 12.4243 119.499 12.7002 119.812 13.0566C120.124 13.4131 120.363 13.8354 120.529 14.3237C120.695 14.812 120.778 15.3442 120.778 15.9204V16.1621C120.778 16.7383 120.695 17.2705 120.529 17.7588C120.363 18.2422 120.124 18.6621 119.812 19.0186C119.504 19.375 119.133 19.6533 118.698 19.8535C118.264 20.0488 117.78 20.1465 117.248 20.1465C116.711 20.1465 116.225 20.0488 115.791 19.8535C115.356 19.6533 114.982 19.375 114.67 19.0186C114.357 18.6621 114.118 18.2422 113.952 17.7588C113.786 17.2705 113.703 16.7383 113.703 16.1621ZM114.575 15.9204V16.1621C114.575 16.5967 114.633 17.0093 114.75 17.3999C114.868 17.7856 115.039 18.1299 115.263 18.4326C115.488 18.7305 115.766 18.9648 116.098 19.1357C116.43 19.3066 116.813 19.3921 117.248 19.3921C117.678 19.3921 118.056 19.3066 118.383 19.1357C118.715 18.9648 118.994 18.7305 119.218 18.4326C119.443 18.1299 119.611 17.7856 119.724 17.3999C119.841 17.0093 119.899 16.5967 119.899 16.1621V15.9204C119.899 15.4907 119.841 15.083 119.724 14.6973C119.611 14.3115 119.44 13.9673 119.211 13.6646C118.986 13.3618 118.708 13.1226 118.376 12.9468C118.044 12.771 117.663 12.6831 117.233 12.6831C116.804 12.6831 116.423 12.771 116.091 12.9468C115.764 13.1226 115.485 13.3618 115.256 13.6646C115.031 13.9673 114.86 14.3115 114.743 14.6973C114.631 15.083 114.575 15.4907 114.575 15.9204ZM126.096 16.3452H123.312L123.298 15.6128H125.671C126.149 15.6128 126.547 15.5615 126.865 15.459C127.187 15.3516 127.429 15.1929 127.59 14.9829C127.756 14.7729 127.839 14.5142 127.839 14.2065C127.839 13.9722 127.79 13.7671 127.692 13.5913C127.6 13.4155 127.458 13.2715 127.268 13.1592C127.082 13.0469 126.848 12.9639 126.564 12.9102C126.286 12.8516 125.961 12.8223 125.59 12.8223H123.562V20H122.69V12.0752H125.59C126.074 12.0752 126.506 12.1191 126.887 12.207C127.272 12.29 127.602 12.417 127.875 12.5879C128.149 12.7588 128.356 12.9785 128.498 13.2471C128.645 13.5107 128.718 13.8232 128.718 14.1846C128.718 14.4287 128.671 14.6582 128.579 14.873C128.486 15.083 128.349 15.2734 128.168 15.4443C127.993 15.6104 127.775 15.7471 127.517 15.8545C127.258 15.957 126.96 16.0205 126.623 16.0449L126.096 16.3452ZM126.096 20H123.042L123.378 19.2529H126.096C126.535 19.2529 126.909 19.1968 127.216 19.0845C127.524 18.9722 127.756 18.8062 127.912 18.5864C128.073 18.3667 128.154 18.1006 128.154 17.7881C128.154 17.4951 128.073 17.2412 127.912 17.0264C127.756 16.8115 127.524 16.6455 127.216 16.5283C126.909 16.4062 126.535 16.3452 126.096 16.3452H124.074L124.089 15.6128H126.689L127.062 15.8911C127.463 15.9253 127.81 16.0327 128.103 16.2134C128.396 16.394 128.623 16.6235 128.784 16.9019C128.945 17.1753 129.025 17.4756 129.025 17.8027C129.025 18.1641 128.957 18.4839 128.82 18.7622C128.684 19.0356 128.486 19.2651 128.227 19.4507C127.973 19.6313 127.666 19.7681 127.304 19.8608C126.943 19.9536 126.54 20 126.096 20ZM130.505 16.1621V15.9204C130.505 15.3442 130.588 14.812 130.754 14.3237C130.92 13.8354 131.157 13.4131 131.464 13.0566C131.777 12.7002 132.15 12.4243 132.585 12.229C133.02 12.0288 133.503 11.9287 134.035 11.9287C134.572 11.9287 135.058 12.0288 135.493 12.229C135.927 12.4243 136.301 12.7002 136.613 13.0566C136.926 13.4131 137.165 13.8354 137.331 14.3237C137.497 14.812 137.58 15.3442 137.58 15.9204V16.1621C137.58 16.7383 137.497 17.2705 137.331 17.7588C137.165 18.2422 136.926 18.6621 136.613 19.0186C136.306 19.375 135.935 19.6533 135.5 19.8535C135.065 20.0488 134.582 20.1465 134.05 20.1465C133.513 20.1465 133.027 20.0488 132.592 19.8535C132.158 19.6533 131.784 19.375 131.472 19.0186C131.159 18.6621 130.92 18.2422 130.754 17.7588C130.588 17.2705 130.505 16.7383 130.505 16.1621ZM131.376 15.9204V16.1621C131.376 16.5967 131.435 17.0093 131.552 17.3999C131.669 17.7856 131.84 18.1299 132.065 18.4326C132.29 18.7305 132.568 18.9648 132.9 19.1357C133.232 19.3066 133.615 19.3921 134.05 19.3921C134.479 19.3921 134.858 19.3066 135.185 19.1357C135.517 18.9648 135.795 18.7305 136.02 18.4326C136.245 18.1299 136.413 17.7856 136.525 17.3999C136.643 17.0093 136.701 16.5967 136.701 16.1621V15.9204C136.701 15.4907 136.643 15.083 136.525 14.6973C136.413 14.3115 136.242 13.9673 136.013 13.6646C135.788 13.3618 135.51 13.1226 135.178 12.9468C134.846 12.771 134.465 12.6831 134.035 12.6831C133.605 12.6831 133.225 12.771 132.893 12.9468C132.565 13.1226 132.287 13.3618 132.058 13.6646C131.833 13.9673 131.662 14.3115 131.545 14.6973C131.433 15.083 131.376 15.4907 131.376 15.9204ZM140.319 18.5791L144.604 12.0752H145.483V20H144.604V13.4961L140.319 20H139.455V12.0752H140.319V18.5791ZM143.798 9.2334H144.545C144.545 9.59961 144.46 9.92432 144.289 10.2075C144.123 10.4907 143.881 10.7129 143.564 10.874C143.247 11.0352 142.871 11.1157 142.436 11.1157C141.782 11.1157 141.264 10.9399 140.883 10.5884C140.507 10.2368 140.319 9.78516 140.319 9.2334H141.059C141.059 9.57031 141.162 9.86328 141.367 10.1123C141.577 10.3564 141.933 10.4785 142.436 10.4785C142.924 10.4785 143.273 10.354 143.483 10.105C143.693 9.85596 143.798 9.56543 143.798 9.2334ZM156.865 12.0752V12.8369H152.229V12.0752H156.865ZM152.426 12.0752V20H151.555V12.0752H152.426ZM157.583 12.0752V20H156.704V12.0752H157.583ZM160.798 13.5986V23.0469H159.919V12.0752H160.739L160.798 13.5986ZM166.306 15.9644V16.1182C166.306 16.709 166.237 17.251 166.101 17.7441C165.964 18.2373 165.766 18.6646 165.507 19.0259C165.253 19.3823 164.938 19.6582 164.562 19.8535C164.187 20.0488 163.759 20.1465 163.281 20.1465C162.807 20.1465 162.385 20.0732 162.014 19.9268C161.643 19.7803 161.323 19.5728 161.054 19.3042C160.791 19.0308 160.578 18.7134 160.417 18.3521C160.261 17.9858 160.151 17.5854 160.087 17.1509V15.1221C160.161 14.6436 160.28 14.209 160.446 13.8184C160.612 13.4277 160.825 13.0908 161.083 12.8076C161.347 12.5244 161.66 12.3071 162.021 12.1558C162.382 12.0044 162.795 11.9287 163.259 11.9287C163.742 11.9287 164.172 12.0239 164.548 12.2144C164.929 12.3999 165.249 12.6709 165.507 13.0273C165.771 13.3789 165.969 13.8037 166.101 14.3018C166.237 14.7949 166.306 15.3491 166.306 15.9644ZM165.427 16.1182V15.9644C165.427 15.5005 165.378 15.0708 165.28 14.6753C165.188 14.2798 165.043 13.9355 164.848 13.6426C164.658 13.3447 164.414 13.1128 164.116 12.9468C163.823 12.7808 163.474 12.6978 163.068 12.6978C162.648 12.6978 162.29 12.7686 161.992 12.9102C161.699 13.0469 161.455 13.23 161.259 13.4595C161.064 13.6841 160.91 13.9307 160.798 14.1992C160.686 14.4678 160.603 14.7314 160.549 14.9902V17.3267C160.642 17.6978 160.791 18.042 160.996 18.3594C161.201 18.6719 161.474 18.9233 161.816 19.1138C162.163 19.2993 162.585 19.3921 163.083 19.3921C163.483 19.3921 163.83 19.3091 164.123 19.1431C164.416 18.9771 164.658 18.7451 164.848 18.4473C165.043 18.1494 165.188 17.8027 165.28 17.4072C165.378 17.0117 165.427 16.582 165.427 16.1182ZM167.771 16.1621V15.9204C167.771 15.3442 167.854 14.812 168.02 14.3237C168.186 13.8354 168.422 13.4131 168.73 13.0566C169.042 12.7002 169.416 12.4243 169.851 12.229C170.285 12.0288 170.769 11.9287 171.301 11.9287C171.838 11.9287 172.324 12.0288 172.758 12.229C173.193 12.4243 173.566 12.7002 173.879 13.0566C174.191 13.4131 174.431 13.8354 174.597 14.3237C174.763 14.812 174.846 15.3442 174.846 15.9204V16.1621C174.846 16.7383 174.763 17.2705 174.597 17.7588C174.431 18.2422 174.191 18.6621 173.879 19.0186C173.571 19.375 173.2 19.6533 172.766 19.8535C172.331 20.0488 171.848 20.1465 171.315 20.1465C170.778 20.1465 170.292 20.0488 169.858 19.8535C169.423 19.6533 169.05 19.375 168.737 19.0186C168.425 18.6621 168.186 18.2422 168.02 17.7588C167.854 17.2705 167.771 16.7383 167.771 16.1621ZM168.642 15.9204V16.1621C168.642 16.5967 168.701 17.0093 168.818 17.3999C168.935 17.7856 169.106 18.1299 169.331 18.4326C169.555 18.7305 169.833 18.9648 170.166 19.1357C170.498 19.3066 170.881 19.3921 171.315 19.3921C171.745 19.3921 172.124 19.3066 172.451 19.1357C172.783 18.9648 173.061 18.7305 173.286 18.4326C173.51 18.1299 173.679 17.7856 173.791 17.3999C173.908 17.0093 173.967 16.5967 173.967 16.1621V15.9204C173.967 15.4907 173.908 15.083 173.791 14.6973C173.679 14.3115 173.508 13.9673 173.278 13.6646C173.054 13.3618 172.775 13.1226 172.443 12.9468C172.111 12.771 171.73 12.6831 171.301 12.6831C170.871 12.6831 170.49 12.771 170.158 12.9468C169.831 13.1226 169.553 13.3618 169.323 13.6646C169.099 13.9673 168.928 14.3115 168.811 14.6973C168.698 15.083 168.642 15.4907 168.642 15.9204ZM185.568 16.1035V16.2573C185.568 16.8384 185.505 17.3682 185.378 17.8467C185.256 18.3203 185.073 18.7305 184.829 19.0771C184.589 19.4238 184.292 19.6899 183.935 19.8755C183.583 20.061 183.181 20.1538 182.727 20.1538C182.399 20.1538 182.109 20.1123 181.855 20.0293C181.601 19.9463 181.384 19.834 181.203 19.6924C181.027 19.5508 180.886 19.3872 180.778 19.2017C180.676 19.0161 180.605 18.8232 180.566 18.623V13.5693C180.615 13.335 180.693 13.1201 180.8 12.9248C180.908 12.7246 181.049 12.5513 181.225 12.4048C181.401 12.2534 181.611 12.1362 181.855 12.0532C182.099 11.9702 182.385 11.9287 182.712 11.9287C183.078 11.9287 183.413 11.9946 183.715 12.1265C184.018 12.2534 184.284 12.439 184.514 12.6831C184.743 12.9224 184.936 13.2129 185.092 13.5547C185.249 13.8965 185.366 14.2822 185.444 14.7119C185.527 15.1416 185.568 15.6055 185.568 16.1035ZM184.697 16.2573V16.1035C184.697 15.7227 184.67 15.3613 184.616 15.0195C184.562 14.6777 184.479 14.3652 184.367 14.082C184.255 13.7939 184.111 13.5474 183.935 13.3423C183.764 13.1323 183.559 12.9712 183.32 12.8589C183.085 12.7417 182.817 12.6831 182.514 12.6831C182.177 12.6831 181.906 12.7246 181.701 12.8076C181.496 12.8906 181.342 12.9907 181.24 13.1079C181.137 13.2251 181.064 13.3325 181.02 13.4302V18.8062C181.074 18.8794 181.159 18.9624 181.276 19.0552C181.398 19.1479 181.562 19.2285 181.767 19.2969C181.972 19.3652 182.226 19.3994 182.529 19.3994C182.905 19.3994 183.229 19.3213 183.503 19.165C183.776 19.0088 184.001 18.7891 184.177 18.5059C184.353 18.2227 184.482 17.8906 184.565 17.5098C184.653 17.1289 184.697 16.7114 184.697 16.2573ZM176.325 16.2573V16.1035C176.325 15.6055 176.364 15.1416 176.442 14.7119C176.525 14.2822 176.645 13.8965 176.801 13.5547C176.962 13.2129 177.158 12.9224 177.387 12.6831C177.617 12.439 177.883 12.2534 178.186 12.1265C178.488 11.9946 178.823 11.9287 179.189 11.9287C179.511 11.9287 179.792 11.9702 180.031 12.0532C180.275 12.1362 180.483 12.2534 180.654 12.4048C180.825 12.5513 180.964 12.7246 181.071 12.9248C181.179 13.1201 181.259 13.335 181.313 13.5693V18.5571C181.274 18.7671 181.201 18.9697 181.093 19.165C180.991 19.3555 180.852 19.5264 180.676 19.6777C180.505 19.8242 180.292 19.939 180.039 20.022C179.79 20.1099 179.501 20.1538 179.174 20.1538C178.72 20.1538 178.315 20.061 177.958 19.8755C177.607 19.6899 177.309 19.4238 177.065 19.0771C176.826 18.7305 176.643 18.3203 176.516 17.8467C176.389 17.3682 176.325 16.8384 176.325 16.2573ZM177.211 16.1035V16.2573C177.211 16.7114 177.25 17.1289 177.329 17.5098C177.412 17.8906 177.539 18.2227 177.709 18.5059C177.885 18.7891 178.107 19.0088 178.376 19.165C178.645 19.3213 178.964 19.3994 179.335 19.3994C179.643 19.3994 179.899 19.3628 180.104 19.2896C180.31 19.2114 180.471 19.1211 180.588 19.0186C180.71 18.916 180.798 18.8232 180.852 18.7402V13.4302C180.808 13.3325 180.734 13.2251 180.632 13.1079C180.529 12.9907 180.375 12.8906 180.17 12.8076C179.97 12.7246 179.697 12.6831 179.35 12.6831C178.974 12.6831 178.649 12.771 178.376 12.9468C178.107 13.1226 177.885 13.3667 177.709 13.6792C177.539 13.9917 177.412 14.3555 177.329 14.7705C177.25 15.1807 177.211 15.625 177.211 16.1035ZM180.485 23.0469V8.75H181.364V23.0469H180.485ZM188.469 18.5791L192.753 12.0752H193.632V20H192.753V13.4961L188.469 20H187.604V12.0752H188.469V18.5791ZM201.359 12.0752V12.8369H197.346V12.0752H201.359ZM202.07 12.0752V20H201.198V12.0752H202.07ZM197.111 12.0752H197.983L197.807 15.7886C197.778 16.3892 197.729 16.9214 197.661 17.3853C197.597 17.8491 197.509 18.2471 197.397 18.5791C197.285 18.9062 197.141 19.1748 196.965 19.3848C196.794 19.5947 196.586 19.751 196.342 19.8535C196.098 19.9512 195.812 20 195.485 20H195.156V19.209L195.427 19.2017C195.637 19.1919 195.82 19.1479 195.976 19.0698C196.137 18.9917 196.274 18.8672 196.386 18.6963C196.503 18.5254 196.599 18.3008 196.672 18.0225C196.75 17.7441 196.811 17.4048 196.855 17.0044C196.904 16.5991 196.94 16.123 196.965 15.5762L197.111 12.0752ZM205.087 14.9463H207.673C208.298 14.9463 208.825 15.0562 209.255 15.2759C209.685 15.4907 210.009 15.7886 210.229 16.1694C210.454 16.5503 210.566 16.98 210.566 17.4585C210.566 17.8198 210.502 18.1567 210.375 18.4692C210.253 18.7769 210.068 19.0454 209.819 19.2749C209.575 19.5044 209.272 19.6826 208.911 19.8096C208.554 19.9365 208.142 20 207.673 20H204.531V12.0752H205.402V19.2456H207.673C208.156 19.2456 208.547 19.1626 208.845 18.9966C209.143 18.8257 209.357 18.606 209.489 18.3374C209.626 18.0688 209.694 17.7832 209.694 17.4805C209.694 17.1826 209.626 16.8994 209.489 16.6309C209.357 16.3574 209.143 16.1353 208.845 15.9644C208.547 15.7886 208.156 15.7007 207.673 15.7007H205.087V14.9463Z" fill="black"/>
<rect x="0.25" y="0.25" width="410.5" height="29.5" rx="14.75" fill="#FF0000" fill-opacity="0.3" stroke="#FF0000" stroke-width="0.5"/>
<rect x="286.25" y="5.25" width="119.5" height="19.5" rx="9.75" fill="#F4F5F7" stroke="#D7D7D7" stroke-width="0.5"/>
<path d="M304.735 14.1187V14.8877H298.253V14.1187H304.735ZM298.466 9.33594V20H297.565V9.33594H298.466ZM305.46 9.33594V20H304.56V9.33594H305.46ZM311.042 20.1465C310.524 20.1465 310.048 20.0513 309.613 19.8608C309.184 19.6704 308.808 19.4019 308.485 19.0552C308.168 18.7085 307.921 18.2983 307.746 17.8247C307.575 17.3462 307.489 16.8237 307.489 16.2573V15.9424C307.489 15.332 307.58 14.7803 307.76 14.2871C307.941 13.7939 308.19 13.3716 308.507 13.02C308.825 12.6685 309.186 12.3999 309.591 12.2144C310.001 12.0239 310.431 11.9287 310.88 11.9287C311.383 11.9287 311.83 12.019 312.221 12.1997C312.611 12.3755 312.938 12.627 313.202 12.9541C313.471 13.2764 313.673 13.6597 313.81 14.104C313.947 14.5435 314.015 15.0293 314.015 15.5615V16.0962H308.017V15.3491H313.144V15.2466C313.134 14.8022 313.043 14.3872 312.873 14.0015C312.707 13.6108 312.458 13.2935 312.125 13.0493C311.793 12.8052 311.378 12.6831 310.88 12.6831C310.509 12.6831 310.167 12.7612 309.855 12.9175C309.547 13.0737 309.281 13.2983 309.057 13.5913C308.837 13.8794 308.666 14.2236 308.544 14.624C308.427 15.0195 308.368 15.459 308.368 15.9424V16.2573C308.368 16.6968 308.432 17.1069 308.559 17.4878C308.69 17.8638 308.876 18.1958 309.115 18.4839C309.359 18.772 309.647 18.9966 309.979 19.1577C310.312 19.3188 310.678 19.3994 311.078 19.3994C311.547 19.3994 311.962 19.314 312.323 19.1431C312.685 18.9673 313.009 18.6914 313.297 18.3154L313.847 18.7402C313.676 18.9941 313.461 19.2285 313.202 19.4434C312.948 19.6582 312.643 19.8291 312.287 19.9561C311.93 20.083 311.515 20.1465 311.042 20.1465ZM324.774 12.0752V12.8369H320.138V12.0752H324.774ZM320.336 12.0752V20H319.464V12.0752H320.336ZM325.492 12.0752V20H324.613V12.0752H325.492ZM327.36 16.1621V15.9204C327.36 15.3442 327.443 14.812 327.609 14.3237C327.775 13.8354 328.012 13.4131 328.319 13.0566C328.632 12.7002 329.005 12.4243 329.44 12.229C329.875 12.0288 330.358 11.9287 330.89 11.9287C331.427 11.9287 331.913 12.0288 332.348 12.229C332.782 12.4243 333.156 12.7002 333.468 13.0566C333.781 13.4131 334.02 13.8354 334.186 14.3237C334.352 14.812 334.435 15.3442 334.435 15.9204V16.1621C334.435 16.7383 334.352 17.2705 334.186 17.7588C334.02 18.2422 333.781 18.6621 333.468 19.0186C333.161 19.375 332.79 19.6533 332.355 19.8535C331.92 20.0488 331.437 20.1465 330.905 20.1465C330.368 20.1465 329.882 20.0488 329.447 19.8535C329.013 19.6533 328.639 19.375 328.327 19.0186C328.014 18.6621 327.775 18.2422 327.609 17.7588C327.443 17.2705 327.36 16.7383 327.36 16.1621ZM328.231 15.9204V16.1621C328.231 16.5967 328.29 17.0093 328.407 17.3999C328.524 17.7856 328.695 18.1299 328.92 18.4326C329.145 18.7305 329.423 18.9648 329.755 19.1357C330.087 19.3066 330.47 19.3921 330.905 19.3921C331.334 19.3921 331.713 19.3066 332.04 19.1357C332.372 18.9648 332.65 18.7305 332.875 18.4326C333.1 18.1299 333.268 17.7856 333.38 17.3999C333.498 17.0093 333.556 16.5967 333.556 16.1621V15.9204C333.556 15.4907 333.498 15.083 333.38 14.6973C333.268 14.3115 333.097 13.9673 332.868 13.6646C332.643 13.3618 332.365 13.1226 332.033 12.9468C331.701 12.771 331.32 12.6831 330.89 12.6831C330.46 12.6831 330.08 12.771 329.748 12.9468C329.42 13.1226 329.142 13.3618 328.913 13.6646C328.688 13.9673 328.517 14.3115 328.4 14.6973C328.288 15.083 328.231 15.4907 328.231 15.9204ZM337.13 12.0752H338.002L337.87 14.9316C337.836 15.6934 337.75 16.355 337.614 16.9165C337.482 17.4731 337.318 17.9492 337.123 18.3447C336.928 18.7354 336.713 19.0649 336.479 19.3335C336.249 19.5972 336.015 19.8193 335.775 20H335.299L335.314 19.2529L335.534 19.2456C335.675 19.0747 335.822 18.8818 335.973 18.667C336.129 18.4473 336.278 18.1787 336.42 17.8613C336.562 17.5439 336.684 17.1484 336.786 16.6748C336.889 16.2012 336.957 15.6201 336.991 14.9316L337.13 12.0752ZM337.416 12.0752H341.803V20H340.932V12.8955H337.416V12.0752ZM334.962 19.2456H342.631V22.3291H341.752V20H335.797V22.3291H334.962V19.2456ZM345.253 12.0752V20H344.374V12.0752H345.253ZM350.468 12.0752L346.835 16.3672H344.945L344.85 15.5835H346.461L349.362 12.0752H350.468ZM349.677 20L346.374 16.25L346.93 15.5762L350.834 20H349.677ZM357.477 12.0752V12.8369H353.463V12.0752H357.477ZM358.188 12.0752V20H357.316V12.0752H358.188ZM353.229 12.0752H354.101L353.925 15.7886C353.896 16.3892 353.847 16.9214 353.778 17.3853C353.715 17.8491 353.627 18.2471 353.515 18.5791C353.402 18.9062 353.258 19.1748 353.083 19.3848C352.912 19.5947 352.704 19.751 352.46 19.8535C352.216 19.9512 351.93 20 351.603 20H351.273V19.209L351.544 19.2017C351.754 19.1919 351.938 19.1479 352.094 19.0698C352.255 18.9917 352.392 18.8672 352.504 18.6963C352.621 18.5254 352.716 18.3008 352.79 18.0225C352.868 17.7441 352.929 17.4048 352.973 17.0044C353.021 16.5991 353.058 16.123 353.083 15.5762L353.229 12.0752ZM364.472 15.6787V16.4258H360.766V15.6787H364.472ZM361.52 12.0752V20H360.648V12.0752H361.52ZM363.769 16.1621V15.9204C363.769 15.3442 363.852 14.812 364.018 14.3237C364.184 13.8354 364.42 13.4131 364.728 13.0566C365.041 12.7002 365.414 12.4243 365.849 12.229C366.283 12.0288 366.767 11.9287 367.299 11.9287C367.836 11.9287 368.322 12.0288 368.756 12.229C369.191 12.4243 369.564 12.7002 369.877 13.0566C370.189 13.4131 370.429 13.8354 370.595 14.3237C370.761 14.812 370.844 15.3442 370.844 15.9204V16.1621C370.844 16.7383 370.761 17.2705 370.595 17.7588C370.429 18.2422 370.189 18.6621 369.877 19.0186C369.569 19.375 369.198 19.6533 368.764 19.8535C368.329 20.0488 367.846 20.1465 367.313 20.1465C366.776 20.1465 366.291 20.0488 365.856 19.8535C365.421 19.6533 365.048 19.375 364.735 19.0186C364.423 18.6621 364.184 18.2422 364.018 17.7588C363.852 17.2705 363.769 16.7383 363.769 16.1621ZM364.647 15.9204V16.1621C364.647 16.5967 364.704 17.0093 364.816 17.3999C364.933 17.7856 365.104 18.1299 365.329 18.4326C365.558 18.7305 365.836 18.9648 366.164 19.1357C366.496 19.3066 366.879 19.3921 367.313 19.3921C367.743 19.3921 368.122 19.3066 368.449 19.1357C368.781 18.9648 369.059 18.7305 369.284 18.4326C369.508 18.1299 369.679 17.7856 369.796 17.3999C369.914 17.0093 369.972 16.5967 369.972 16.1621V15.9204C369.972 15.4907 369.914 15.083 369.796 14.6973C369.679 14.3115 369.506 13.9673 369.276 13.6646C369.052 13.3618 368.773 13.1226 368.441 12.9468C368.109 12.771 367.729 12.6831 367.299 12.6831C366.869 12.6831 366.491 12.771 366.164 12.9468C365.836 13.1226 365.558 13.3618 365.329 13.6646C365.104 13.9673 364.933 14.3115 364.816 14.6973C364.704 15.083 364.647 15.4907 364.647 15.9204ZM378.388 12.0752V20H377.516V12.0752H378.388ZM378.087 15.6714V16.4258C377.863 16.5332 377.604 16.6357 377.311 16.7334C377.023 16.8311 376.718 16.9116 376.396 16.9751C376.078 17.0337 375.761 17.063 375.443 17.063C374.789 17.063 374.235 16.9678 373.781 16.7773C373.332 16.5869 372.992 16.2744 372.763 15.8398C372.533 15.4004 372.418 14.8145 372.418 14.082V12.0679H373.29V14.082C373.29 14.6436 373.368 15.0879 373.524 15.415C373.681 15.7373 373.917 15.9668 374.235 16.1035C374.552 16.2402 374.955 16.3086 375.443 16.3086C375.78 16.2988 376.115 16.2646 376.447 16.2061C376.779 16.1426 377.086 16.0645 377.37 15.9717C377.658 15.874 377.897 15.7739 378.087 15.6714ZM383.8 20.1465C383.283 20.1465 382.807 20.0513 382.372 19.8608C381.942 19.6704 381.566 19.4019 381.244 19.0552C380.927 18.7085 380.68 18.2983 380.504 17.8247C380.333 17.3462 380.248 16.8237 380.248 16.2573V15.9424C380.248 15.332 380.338 14.7803 380.519 14.2871C380.7 13.7939 380.949 13.3716 381.266 13.02C381.583 12.6685 381.945 12.3999 382.35 12.2144C382.76 12.0239 383.19 11.9287 383.639 11.9287C384.142 11.9287 384.589 12.019 384.979 12.1997C385.37 12.3755 385.697 12.627 385.961 12.9541C386.229 13.2764 386.432 13.6597 386.569 14.104C386.706 14.5435 386.774 15.0293 386.774 15.5615V16.0962H380.775V15.3491H385.902V15.2466C385.893 14.8022 385.802 14.3872 385.631 14.0015C385.465 13.6108 385.216 13.2935 384.884 13.0493C384.552 12.8052 384.137 12.6831 383.639 12.6831C383.268 12.6831 382.926 12.7612 382.614 12.9175C382.306 13.0737 382.04 13.2983 381.815 13.5913C381.596 13.8794 381.425 14.2236 381.303 14.624C381.186 15.0195 381.127 15.459 381.127 15.9424V16.2573C381.127 16.6968 381.19 17.1069 381.317 17.4878C381.449 17.8638 381.635 18.1958 381.874 18.4839C382.118 18.772 382.406 18.9966 382.738 19.1577C383.07 19.3188 383.437 19.3994 383.837 19.3994C384.306 19.3994 384.721 19.314 385.082 19.1431C385.443 18.9673 385.768 18.6914 386.056 18.3154L386.605 18.7402C386.435 18.9941 386.22 19.2285 385.961 19.4434C385.707 19.6582 385.402 19.8291 385.045 19.9561C384.689 20.083 384.274 20.1465 383.8 20.1465ZM393.908 15.6201V16.3672H389.206V15.6201H393.908ZM389.433 12.0752V20H388.561V12.0752H389.433ZM394.582 12.0752V20H393.703V12.0752H394.582Z" fill="black"/>
<path d="M84.8896 19.209L84.8237 22.5708H83.9961V20H82.9487V19.209H84.8896ZM76.0054 20V9.33594H76.9062V19.231H82.9414V9.33594H83.8423V20H76.0054ZM87.4678 18.5791L91.7524 12.0752H92.6313V20H91.7524V13.4961L87.4678 20H86.6035V12.0752H87.4678V18.5791ZM103.889 16.1035V16.2573C103.889 16.8384 103.825 17.3682 103.698 17.8467C103.576 18.3203 103.393 18.7305 103.149 19.0771C102.91 19.4238 102.612 19.6899 102.255 19.8755C101.904 20.061 101.501 20.1538 101.047 20.1538C100.72 20.1538 100.429 20.1123 100.175 20.0293C99.9214 19.9463 99.7041 19.834 99.5234 19.6924C99.3477 19.5508 99.2061 19.3872 99.0986 19.2017C98.9961 19.0161 98.9253 18.8232 98.8862 18.623V13.5693C98.9351 13.335 99.0132 13.1201 99.1206 12.9248C99.228 12.7246 99.3696 12.5513 99.5454 12.4048C99.7212 12.2534 99.9312 12.1362 100.175 12.0532C100.419 11.9702 100.705 11.9287 101.032 11.9287C101.398 11.9287 101.733 11.9946 102.036 12.1265C102.338 12.2534 102.604 12.439 102.834 12.6831C103.063 12.9224 103.256 13.2129 103.413 13.5547C103.569 13.8965 103.686 14.2822 103.764 14.7119C103.847 15.1416 103.889 15.6055 103.889 16.1035ZM103.017 16.2573V16.1035C103.017 15.7227 102.99 15.3613 102.937 15.0195C102.883 14.6777 102.8 14.3652 102.688 14.082C102.575 13.7939 102.431 13.5474 102.255 13.3423C102.084 13.1323 101.879 12.9712 101.64 12.8589C101.406 12.7417 101.137 12.6831 100.834 12.6831C100.498 12.6831 100.227 12.7246 100.021 12.8076C99.8164 12.8906 99.6626 12.9907 99.5601 13.1079C99.4575 13.2251 99.3843 13.3325 99.3403 13.4302V18.8062C99.394 18.8794 99.4795 18.9624 99.5967 19.0552C99.7188 19.1479 99.8823 19.2285 100.087 19.2969C100.292 19.3652 100.546 19.3994 100.849 19.3994C101.225 19.3994 101.55 19.3213 101.823 19.165C102.097 19.0088 102.321 18.7891 102.497 18.5059C102.673 18.2227 102.802 17.8906 102.885 17.5098C102.973 17.1289 103.017 16.7114 103.017 16.2573ZM94.6455 16.2573V16.1035C94.6455 15.6055 94.6846 15.1416 94.7627 14.7119C94.8457 14.2822 94.9653 13.8965 95.1216 13.5547C95.2827 13.2129 95.478 12.9224 95.7075 12.6831C95.937 12.439 96.2031 12.2534 96.5059 12.1265C96.8086 11.9946 97.1431 11.9287 97.5093 11.9287C97.8315 11.9287 98.1123 11.9702 98.3516 12.0532C98.5957 12.1362 98.8032 12.2534 98.9741 12.4048C99.145 12.5513 99.2842 12.7246 99.3916 12.9248C99.499 13.1201 99.5796 13.335 99.6333 13.5693V18.5571C99.5942 18.7671 99.521 18.9697 99.4136 19.165C99.311 19.3555 99.1719 19.5264 98.9961 19.6777C98.8252 19.8242 98.6128 19.939 98.3589 20.022C98.1099 20.1099 97.8218 20.1538 97.4946 20.1538C97.0405 20.1538 96.6353 20.061 96.2788 19.8755C95.9272 19.6899 95.6294 19.4238 95.3853 19.0771C95.146 18.7305 94.9629 18.3203 94.8359 17.8467C94.709 17.3682 94.6455 16.8384 94.6455 16.2573ZM95.5317 16.1035V16.2573C95.5317 16.7114 95.5708 17.1289 95.6489 17.5098C95.7319 17.8906 95.8589 18.2227 96.0298 18.5059C96.2056 18.7891 96.4277 19.0088 96.6963 19.165C96.9648 19.3213 97.2847 19.3994 97.6558 19.3994C97.9634 19.3994 98.2197 19.3628 98.4248 19.2896C98.6299 19.2114 98.791 19.1211 98.9082 19.0186C99.0303 18.916 99.1182 18.8232 99.1719 18.7402V13.4302C99.1279 13.3325 99.0547 13.2251 98.9521 13.1079C98.8496 12.9907 98.6958 12.8906 98.4907 12.8076C98.2905 12.7246 98.0171 12.6831 97.6704 12.6831C97.2944 12.6831 96.9697 12.771 96.6963 12.9468C96.4277 13.1226 96.2056 13.3667 96.0298 13.6792C95.8589 13.9917 95.7319 14.3555 95.6489 14.7705C95.5708 15.1807 95.5317 15.625 95.5317 16.1035ZM98.8057 23.0469V8.75H99.6846V23.0469H98.8057ZM106.73 13.5986V23.0469H105.852V12.0752H106.672L106.73 13.5986ZM112.238 15.9644V16.1182C112.238 16.709 112.17 17.251 112.033 17.7441C111.896 18.2373 111.699 18.6646 111.44 19.0259C111.186 19.3823 110.871 19.6582 110.495 19.8535C110.119 20.0488 109.692 20.1465 109.213 20.1465C108.74 20.1465 108.317 20.0732 107.946 19.9268C107.575 19.7803 107.255 19.5728 106.987 19.3042C106.723 19.0308 106.511 18.7134 106.35 18.3521C106.193 17.9858 106.083 17.5854 106.02 17.1509V15.1221C106.093 14.6436 106.213 14.209 106.379 13.8184C106.545 13.4277 106.757 13.0908 107.016 12.8076C107.28 12.5244 107.592 12.3071 107.954 12.1558C108.315 12.0044 108.728 11.9287 109.191 11.9287C109.675 11.9287 110.104 12.0239 110.48 12.2144C110.861 12.3999 111.181 12.6709 111.44 13.0273C111.704 13.3789 111.901 13.8037 112.033 14.3018C112.17 14.7949 112.238 15.3491 112.238 15.9644ZM111.359 16.1182V15.9644C111.359 15.5005 111.311 15.0708 111.213 14.6753C111.12 14.2798 110.976 13.9355 110.781 13.6426C110.59 13.3447 110.346 13.1128 110.048 12.9468C109.755 12.7808 109.406 12.6978 109.001 12.6978C108.581 12.6978 108.222 12.7686 107.924 12.9102C107.631 13.0469 107.387 13.23 107.192 13.4595C106.997 13.6841 106.843 13.9307 106.73 14.1992C106.618 14.4678 106.535 14.7314 106.481 14.9902V17.3267C106.574 17.6978 106.723 18.042 106.928 18.3594C107.133 18.6719 107.407 18.9233 107.749 19.1138C108.095 19.2993 108.518 19.3921 109.016 19.3921C109.416 19.3921 109.763 19.3091 110.056 19.1431C110.349 18.9771 110.59 18.7451 110.781 18.4473C110.976 18.1494 111.12 17.8027 111.213 17.4072C111.311 17.0117 111.359 16.582 111.359 16.1182ZM113.703 16.1621V15.9204C113.703 15.3442 113.786 14.812 113.952 14.3237C114.118 13.8354 114.355 13.4131 114.663 13.0566C114.975 12.7002 115.349 12.4243 115.783 12.229C116.218 12.0288 116.701 11.9287 117.233 11.9287C117.771 11.9287 118.256 12.0288 118.691 12.229C119.125 12.4243 119.499 12.7002 119.812 13.0566C120.124 13.4131 120.363 13.8354 120.529 14.3237C120.695 14.812 120.778 15.3442 120.778 15.9204V16.1621C120.778 16.7383 120.695 17.2705 120.529 17.7588C120.363 18.2422 120.124 18.6621 119.812 19.0186C119.504 19.375 119.133 19.6533 118.698 19.8535C118.264 20.0488 117.78 20.1465 117.248 20.1465C116.711 20.1465 116.225 20.0488 115.791 19.8535C115.356 19.6533 114.982 19.375 114.67 19.0186C114.357 18.6621 114.118 18.2422 113.952 17.7588C113.786 17.2705 113.703 16.7383 113.703 16.1621ZM114.575 15.9204V16.1621C114.575 16.5967 114.633 17.0093 114.75 17.3999C114.868 17.7856 115.039 18.1299 115.263 18.4326C115.488 18.7305 115.766 18.9648 116.098 19.1357C116.43 19.3066 116.813 19.3921 117.248 19.3921C117.678 19.3921 118.056 19.3066 118.383 19.1357C118.715 18.9648 118.994 18.7305 119.218 18.4326C119.443 18.1299 119.611 17.7856 119.724 17.3999C119.841 17.0093 119.899 16.5967 119.899 16.1621V15.9204C119.899 15.4907 119.841 15.083 119.724 14.6973C119.611 14.3115 119.44 13.9673 119.211 13.6646C118.986 13.3618 118.708 13.1226 118.376 12.9468C118.044 12.771 117.663 12.6831 117.233 12.6831C116.804 12.6831 116.423 12.771 116.091 12.9468C115.764 13.1226 115.485 13.3618 115.256 13.6646C115.031 13.9673 114.86 14.3115 114.743 14.6973C114.631 15.083 114.575 15.4907 114.575 15.9204ZM126.096 16.3452H123.312L123.298 15.6128H125.671C126.149 15.6128 126.547 15.5615 126.865 15.459C127.187 15.3516 127.429 15.1929 127.59 14.9829C127.756 14.7729 127.839 14.5142 127.839 14.2065C127.839 13.9722 127.79 13.7671 127.692 13.5913C127.6 13.4155 127.458 13.2715 127.268 13.1592C127.082 13.0469 126.848 12.9639 126.564 12.9102C126.286 12.8516 125.961 12.8223 125.59 12.8223H123.562V20H122.69V12.0752H125.59C126.074 12.0752 126.506 12.1191 126.887 12.207C127.272 12.29 127.602 12.417 127.875 12.5879C128.149 12.7588 128.356 12.9785 128.498 13.2471C128.645 13.5107 128.718 13.8232 128.718 14.1846C128.718 14.4287 128.671 14.6582 128.579 14.873C128.486 15.083 128.349 15.2734 128.168 15.4443C127.993 15.6104 127.775 15.7471 127.517 15.8545C127.258 15.957 126.96 16.0205 126.623 16.0449L126.096 16.3452ZM126.096 20H123.042L123.378 19.2529H126.096C126.535 19.2529 126.909 19.1968 127.216 19.0845C127.524 18.9722 127.756 18.8062 127.912 18.5864C128.073 18.3667 128.154 18.1006 128.154 17.7881C128.154 17.4951 128.073 17.2412 127.912 17.0264C127.756 16.8115 127.524 16.6455 127.216 16.5283C126.909 16.4062 126.535 16.3452 126.096 16.3452H124.074L124.089 15.6128H126.689L127.062 15.8911C127.463 15.9253 127.81 16.0327 128.103 16.2134C128.396 16.394 128.623 16.6235 128.784 16.9019C128.945 17.1753 129.025 17.4756 129.025 17.8027C129.025 18.1641 128.957 18.4839 128.82 18.7622C128.684 19.0356 128.486 19.2651 128.227 19.4507C127.973 19.6313 127.666 19.7681 127.304 19.8608C126.943 19.9536 126.54 20 126.096 20ZM130.505 16.1621V15.9204C130.505 15.3442 130.588 14.812 130.754 14.3237C130.92 13.8354 131.157 13.4131 131.464 13.0566C131.777 12.7002 132.15 12.4243 132.585 12.229C133.02 12.0288 133.503 11.9287 134.035 11.9287C134.572 11.9287 135.058 12.0288 135.493 12.229C135.927 12.4243 136.301 12.7002 136.613 13.0566C136.926 13.4131 137.165 13.8354 137.331 14.3237C137.497 14.812 137.58 15.3442 137.58 15.9204V16.1621C137.58 16.7383 137.497 17.2705 137.331 17.7588C137.165 18.2422 136.926 18.6621 136.613 19.0186C136.306 19.375 135.935 19.6533 135.5 19.8535C135.065 20.0488 134.582 20.1465 134.05 20.1465C133.513 20.1465 133.027 20.0488 132.592 19.8535C132.158 19.6533 131.784 19.375 131.472 19.0186C131.159 18.6621 130.92 18.2422 130.754 17.7588C130.588 17.2705 130.505 16.7383 130.505 16.1621ZM131.376 15.9204V16.1621C131.376 16.5967 131.435 17.0093 131.552 17.3999C131.669 17.7856 131.84 18.1299 132.065 18.4326C132.29 18.7305 132.568 18.9648 132.9 19.1357C133.232 19.3066 133.615 19.3921 134.05 19.3921C134.479 19.3921 134.858 19.3066 135.185 19.1357C135.517 18.9648 135.795 18.7305 136.02 18.4326C136.245 18.1299 136.413 17.7856 136.525 17.3999C136.643 17.0093 136.701 16.5967 136.701 16.1621V15.9204C136.701 15.4907 136.643 15.083 136.525 14.6973C136.413 14.3115 136.242 13.9673 136.013 13.6646C135.788 13.3618 135.51 13.1226 135.178 12.9468C134.846 12.771 134.465 12.6831 134.035 12.6831C133.605 12.6831 133.225 12.771 132.893 12.9468C132.565 13.1226 132.287 13.3618 132.058 13.6646C131.833 13.9673 131.662 14.3115 131.545 14.6973C131.433 15.083 131.376 15.4907 131.376 15.9204ZM140.319 18.5791L144.604 12.0752H145.483V20H144.604V13.4961L140.319 20H139.455V12.0752H140.319V18.5791ZM143.798 9.2334H144.545C144.545 9.59961 144.46 9.92432 144.289 10.2075C144.123 10.4907 143.881 10.7129 143.564 10.874C143.247 11.0352 142.871 11.1157 142.436 11.1157C141.782 11.1157 141.264 10.9399 140.883 10.5884C140.507 10.2368 140.319 9.78516 140.319 9.2334H141.059C141.059 9.57031 141.162 9.86328 141.367 10.1123C141.577 10.3564 141.933 10.4785 142.436 10.4785C142.924 10.4785 143.273 10.354 143.483 10.105C143.693 9.85596 143.798 9.56543 143.798 9.2334ZM156.865 12.0752V12.8369H152.229V12.0752H156.865ZM152.426 12.0752V20H151.555V12.0752H152.426ZM157.583 12.0752V20H156.704V12.0752H157.583ZM160.798 13.5986V23.0469H159.919V12.0752H160.739L160.798 13.5986ZM166.306 15.9644V16.1182C166.306 16.709 166.237 17.251 166.101 17.7441C165.964 18.2373 165.766 18.6646 165.507 19.0259C165.253 19.3823 164.938 19.6582 164.562 19.8535C164.187 20.0488 163.759 20.1465 163.281 20.1465C162.807 20.1465 162.385 20.0732 162.014 19.9268C161.643 19.7803 161.323 19.5728 161.054 19.3042C160.791 19.0308 160.578 18.7134 160.417 18.3521C160.261 17.9858 160.151 17.5854 160.087 17.1509V15.1221C160.161 14.6436 160.28 14.209 160.446 13.8184C160.612 13.4277 160.825 13.0908 161.083 12.8076C161.347 12.5244 161.66 12.3071 162.021 12.1558C162.382 12.0044 162.795 11.9287 163.259 11.9287C163.742 11.9287 164.172 12.0239 164.548 12.2144C164.929 12.3999 165.249 12.6709 165.507 13.0273C165.771 13.3789 165.969 13.8037 166.101 14.3018C166.237 14.7949 166.306 15.3491 166.306 15.9644ZM165.427 16.1182V15.9644C165.427 15.5005 165.378 15.0708 165.28 14.6753C165.188 14.2798 165.043 13.9355 164.848 13.6426C164.658 13.3447 164.414 13.1128 164.116 12.9468C163.823 12.7808 163.474 12.6978 163.068 12.6978C162.648 12.6978 162.29 12.7686 161.992 12.9102C161.699 13.0469 161.455 13.23 161.259 13.4595C161.064 13.6841 160.91 13.9307 160.798 14.1992C160.686 14.4678 160.603 14.7314 160.549 14.9902V17.3267C160.642 17.6978 160.791 18.042 160.996 18.3594C161.201 18.6719 161.474 18.9233 161.816 19.1138C162.163 19.2993 162.585 19.3921 163.083 19.3921C163.483 19.3921 163.83 19.3091 164.123 19.1431C164.416 18.9771 164.658 18.7451 164.848 18.4473C165.043 18.1494 165.188 17.8027 165.28 17.4072C165.378 17.0117 165.427 16.582 165.427 16.1182ZM167.771 16.1621V15.9204C167.771 15.3442 167.854 14.812 168.02 14.3237C168.186 13.8354 168.422 13.4131 168.73 13.0566C169.042 12.7002 169.416 12.4243 169.851 12.229C170.285 12.0288 170.769 11.9287 171.301 11.9287C171.838 11.9287 172.324 12.0288 172.758 12.229C173.193 12.4243 173.566 12.7002 173.879 13.0566C174.191 13.4131 174.431 13.8354 174.597 14.3237C174.763 14.812 174.846 15.3442 174.846 15.9204V16.1621C174.846 16.7383 174.763 17.2705 174.597 17.7588C174.431 18.2422 174.191 18.6621 173.879 19.0186C173.571 19.375 173.2 19.6533 172.766 19.8535C172.331 20.0488 171.848 20.1465 171.315 20.1465C170.778 20.1465 170.292 20.0488 169.858 19.8535C169.423 19.6533 169.05 19.375 168.737 19.0186C168.425 18.6621 168.186 18.2422 168.02 17.7588C167.854 17.2705 167.771 16.7383 167.771 16.1621ZM168.642 15.9204V16.1621C168.642 16.5967 168.701 17.0093 168.818 17.3999C168.935 17.7856 169.106 18.1299 169.331 18.4326C169.555 18.7305 169.833 18.9648 170.166 19.1357C170.498 19.3066 170.881 19.3921 171.315 19.3921C171.745 19.3921 172.124 19.3066 172.451 19.1357C172.783 18.9648 173.061 18.7305 173.286 18.4326C173.51 18.1299 173.679 17.7856 173.791 17.3999C173.908 17.0093 173.967 16.5967 173.967 16.1621V15.9204C173.967 15.4907 173.908 15.083 173.791 14.6973C173.679 14.3115 173.508 13.9673 173.278 13.6646C173.054 13.3618 172.775 13.1226 172.443 12.9468C172.111 12.771 171.73 12.6831 171.301 12.6831C170.871 12.6831 170.49 12.771 170.158 12.9468C169.831 13.1226 169.553 13.3618 169.323 13.6646C169.099 13.9673 168.928 14.3115 168.811 14.6973C168.698 15.083 168.642 15.4907 168.642 15.9204ZM185.568 16.1035V16.2573C185.568 16.8384 185.505 17.3682 185.378 17.8467C185.256 18.3203 185.073 18.7305 184.829 19.0771C184.589 19.4238 184.292 19.6899 183.935 19.8755C183.583 20.061 183.181 20.1538 182.727 20.1538C182.399 20.1538 182.109 20.1123 181.855 20.0293C181.601 19.9463 181.384 19.834 181.203 19.6924C181.027 19.5508 180.886 19.3872 180.778 19.2017C180.676 19.0161 180.605 18.8232 180.566 18.623V13.5693C180.615 13.335 180.693 13.1201 180.8 12.9248C180.908 12.7246 181.049 12.5513 181.225 12.4048C181.401 12.2534 181.611 12.1362 181.855 12.0532C182.099 11.9702 182.385 11.9287 182.712 11.9287C183.078 11.9287 183.413 11.9946 183.715 12.1265C184.018 12.2534 184.284 12.439 184.514 12.6831C184.743 12.9224 184.936 13.2129 185.092 13.5547C185.249 13.8965 185.366 14.2822 185.444 14.7119C185.527 15.1416 185.568 15.6055 185.568 16.1035ZM184.697 16.2573V16.1035C184.697 15.7227 184.67 15.3613 184.616 15.0195C184.562 14.6777 184.479 14.3652 184.367 14.082C184.255 13.7939 184.111 13.5474 183.935 13.3423C183.764 13.1323 183.559 12.9712 183.32 12.8589C183.085 12.7417 182.817 12.6831 182.514 12.6831C182.177 12.6831 181.906 12.7246 181.701 12.8076C181.496 12.8906 181.342 12.9907 181.24 13.1079C181.137 13.2251 181.064 13.3325 181.02 13.4302V18.8062C181.074 18.8794 181.159 18.9624 181.276 19.0552C181.398 19.1479 181.562 19.2285 181.767 19.2969C181.972 19.3652 182.226 19.3994 182.529 19.3994C182.905 19.3994 183.229 19.3213 183.503 19.165C183.776 19.0088 184.001 18.7891 184.177 18.5059C184.353 18.2227 184.482 17.8906 184.565 17.5098C184.653 17.1289 184.697 16.7114 184.697 16.2573ZM176.325 16.2573V16.1035C176.325 15.6055 176.364 15.1416 176.442 14.7119C176.525 14.2822 176.645 13.8965 176.801 13.5547C176.962 13.2129 177.158 12.9224 177.387 12.6831C177.617 12.439 177.883 12.2534 178.186 12.1265C178.488 11.9946 178.823 11.9287 179.189 11.9287C179.511 11.9287 179.792 11.9702 180.031 12.0532C180.275 12.1362 180.483 12.2534 180.654 12.4048C180.825 12.5513 180.964 12.7246 181.071 12.9248C181.179 13.1201 181.259 13.335 181.313 13.5693V18.5571C181.274 18.7671 181.201 18.9697 181.093 19.165C180.991 19.3555 180.852 19.5264 180.676 19.6777C180.505 19.8242 180.292 19.939 180.039 20.022C179.79 20.1099 179.501 20.1538 179.174 20.1538C178.72 20.1538 178.315 20.061 177.958 19.8755C177.607 19.6899 177.309 19.4238 177.065 19.0771C176.826 18.7305 176.643 18.3203 176.516 17.8467C176.389 17.3682 176.325 16.8384 176.325 16.2573ZM177.211 16.1035V16.2573C177.211 16.7114 177.25 17.1289 177.329 17.5098C177.412 17.8906 177.539 18.2227 177.709 18.5059C177.885 18.7891 178.107 19.0088 178.376 19.165C178.645 19.3213 178.964 19.3994 179.335 19.3994C179.643 19.3994 179.899 19.3628 180.104 19.2896C180.31 19.2114 180.471 19.1211 180.588 19.0186C180.71 18.916 180.798 18.8232 180.852 18.7402V13.4302C180.808 13.3325 180.734 13.2251 180.632 13.1079C180.529 12.9907 180.375 12.8906 180.17 12.8076C179.97 12.7246 179.697 12.6831 179.35 12.6831C178.974 12.6831 178.649 12.771 178.376 12.9468C178.107 13.1226 177.885 13.3667 177.709 13.6792C177.539 13.9917 177.412 14.3555 177.329 14.7705C177.25 15.1807 177.211 15.625 177.211 16.1035ZM180.485 23.0469V8.75H181.364V23.0469H180.485ZM188.469 18.5791L192.753 12.0752H193.632V20H192.753V13.4961L188.469 20H187.604V12.0752H188.469V18.5791ZM201.359 12.0752V12.8369H197.346V12.0752H201.359ZM202.07 12.0752V20H201.198V12.0752H202.07ZM197.111 12.0752H197.983L197.807 15.7886C197.778 16.3892 197.729 16.9214 197.661 17.3853C197.597 17.8491 197.509 18.2471 197.397 18.5791C197.285 18.9062 197.141 19.1748 196.965 19.3848C196.794 19.5947 196.586 19.751 196.342 19.8535C196.098 19.9512 195.812 20 195.485 20H195.156V19.209L195.427 19.2017C195.637 19.1919 195.82 19.1479 195.976 19.0698C196.137 18.9917 196.274 18.8672 196.386 18.6963C196.503 18.5254 196.599 18.3008 196.672 18.0225C196.75 17.7441 196.811 17.4048 196.855 17.0044C196.904 16.5991 196.94 16.123 196.965 15.5762L197.111 12.0752ZM205.087 14.9463H207.673C208.298 14.9463 208.825 15.0562 209.255 15.2759C209.685 15.4907 210.009 15.7886 210.229 16.1694C210.454 16.5503 210.566 16.98 210.566 17.4585C210.566 17.8198 210.502 18.1567 210.375 18.4692C210.253 18.7769 210.068 19.0454 209.819 19.2749C209.575 19.5044 209.272 19.6826 208.911 19.8096C208.554 19.9365 208.142 20 207.673 20H204.531V12.0752H205.402V19.2456H207.673C208.156 19.2456 208.547 19.1626 208.845 18.9966C209.143 18.8257 209.357 18.606 209.489 18.3374C209.626 18.0688 209.694 17.7832 209.694 17.4805C209.694 17.1826 209.626 16.8994 209.489 16.6309C209.357 16.3574 209.143 16.1353 208.845 15.9644C208.547 15.7886 208.156 15.7007 207.673 15.7007H205.087V14.9463Z" fill="black"/>
<path d="M164.046 32.6016V39H163.51V33.0674H159.885V39H159.344V32.6016H164.046ZM165.286 36.6973V36.5522C165.286 36.2065 165.335 35.8872 165.435 35.5942C165.535 35.3013 165.677 35.0479 165.861 34.834C166.049 34.6201 166.273 34.4546 166.534 34.3374C166.794 34.2173 167.084 34.1572 167.404 34.1572C167.726 34.1572 168.018 34.2173 168.278 34.3374C168.539 34.4546 168.763 34.6201 168.951 34.834C169.138 35.0479 169.282 35.3013 169.381 35.5942C169.481 35.8872 169.531 36.2065 169.531 36.5522V36.6973C169.531 37.043 169.481 37.3623 169.381 37.6553C169.282 37.9453 169.138 38.1973 168.951 38.4111C168.766 38.625 168.543 38.792 168.283 38.9121C168.022 39.0293 167.732 39.0879 167.413 39.0879C167.09 39.0879 166.799 39.0293 166.538 38.9121C166.277 38.792 166.053 38.625 165.866 38.4111C165.678 38.1973 165.535 37.9453 165.435 37.6553C165.335 37.3623 165.286 37.043 165.286 36.6973ZM165.809 36.5522V36.6973C165.809 36.958 165.844 37.2056 165.914 37.4399C165.984 37.6714 166.087 37.8779 166.222 38.0596C166.356 38.2383 166.523 38.3789 166.723 38.4814C166.922 38.584 167.152 38.6353 167.413 38.6353C167.67 38.6353 167.897 38.584 168.094 38.4814C168.293 38.3789 168.46 38.2383 168.595 38.0596C168.729 37.8779 168.831 37.6714 168.898 37.4399C168.968 37.2056 169.003 36.958 169.003 36.6973V36.5522C169.003 36.2944 168.968 36.0498 168.898 35.8184C168.831 35.5869 168.728 35.3804 168.59 35.1987C168.456 35.0171 168.289 34.8735 168.089 34.7681C167.89 34.6626 167.662 34.6099 167.404 34.6099C167.146 34.6099 166.917 34.6626 166.718 34.7681C166.522 34.8735 166.355 35.0171 166.217 35.1987C166.083 35.3804 165.98 35.5869 165.91 35.8184C165.842 36.0498 165.809 36.2944 165.809 36.5522ZM173.842 34.2451V34.7021H171.06V34.2451H173.842ZM171.179 34.2451V39H170.656V34.2451H171.179ZM174.272 34.2451V39H173.745V34.2451H174.272ZM176.202 35.1592V40.8281H175.674V34.2451H176.167L176.202 35.1592ZM179.506 36.5786V36.6709C179.506 37.0254 179.465 37.3506 179.383 37.6465C179.301 37.9424 179.183 38.1987 179.027 38.4155C178.875 38.6294 178.686 38.7949 178.46 38.9121C178.235 39.0293 177.979 39.0879 177.691 39.0879C177.407 39.0879 177.154 39.0439 176.931 38.9561C176.708 38.8682 176.517 38.7437 176.355 38.5825C176.197 38.4185 176.07 38.228 175.973 38.0112C175.879 37.7915 175.813 37.5513 175.775 37.2905V36.0732C175.819 35.7861 175.891 35.5254 175.991 35.291C176.09 35.0566 176.218 34.8545 176.373 34.6846C176.531 34.5146 176.719 34.3843 176.936 34.2935C177.152 34.2026 177.4 34.1572 177.678 34.1572C177.968 34.1572 178.226 34.2144 178.452 34.3286C178.68 34.4399 178.872 34.6025 179.027 34.8164C179.186 35.0273 179.304 35.2822 179.383 35.5811C179.465 35.877 179.506 36.2095 179.506 36.5786ZM178.979 36.6709V36.5786C178.979 36.3003 178.95 36.0425 178.891 35.8052C178.835 35.5679 178.749 35.3613 178.632 35.1855C178.518 35.0068 178.371 34.8677 178.192 34.7681C178.017 34.6685 177.807 34.6187 177.564 34.6187C177.312 34.6187 177.097 34.6611 176.918 34.7461C176.742 34.8281 176.596 34.938 176.479 35.0757C176.361 35.2104 176.269 35.3584 176.202 35.5195C176.134 35.6807 176.084 35.8389 176.052 35.9941V37.396C176.108 37.6187 176.197 37.8252 176.32 38.0156C176.443 38.2031 176.607 38.354 176.812 38.4683C177.021 38.5796 177.274 38.6353 177.573 38.6353C177.813 38.6353 178.021 38.5854 178.197 38.4858C178.373 38.3862 178.518 38.2471 178.632 38.0684C178.749 37.8896 178.835 37.6816 178.891 37.4443C178.95 37.207 178.979 36.9492 178.979 36.6709ZM180.385 36.6973V36.5522C180.385 36.2065 180.435 35.8872 180.535 35.5942C180.634 35.3013 180.776 35.0479 180.961 34.834C181.148 34.6201 181.373 34.4546 181.633 34.3374C181.894 34.2173 182.184 34.1572 182.503 34.1572C182.826 34.1572 183.117 34.2173 183.378 34.3374C183.639 34.4546 183.863 34.6201 184.05 34.834C184.238 35.0479 184.381 35.3013 184.481 35.5942C184.581 35.8872 184.63 36.2065 184.63 36.5522V36.6973C184.63 37.043 184.581 37.3623 184.481 37.6553C184.381 37.9453 184.238 38.1973 184.05 38.4111C183.866 38.625 183.643 38.792 183.382 38.9121C183.122 39.0293 182.832 39.0879 182.512 39.0879C182.19 39.0879 181.898 39.0293 181.638 38.9121C181.377 38.792 181.153 38.625 180.965 38.4111C180.778 38.1973 180.634 37.9453 180.535 37.6553C180.435 37.3623 180.385 37.043 180.385 36.6973ZM180.908 36.5522V36.6973C180.908 36.958 180.943 37.2056 181.014 37.4399C181.084 37.6714 181.187 37.8779 181.321 38.0596C181.456 38.2383 181.623 38.3789 181.822 38.4814C182.021 38.584 182.251 38.6353 182.512 38.6353C182.77 38.6353 182.997 38.584 183.193 38.4814C183.393 38.3789 183.56 38.2383 183.694 38.0596C183.829 37.8779 183.93 37.6714 183.998 37.4399C184.068 37.2056 184.103 36.958 184.103 36.6973V36.5522C184.103 36.2944 184.068 36.0498 183.998 35.8184C183.93 35.5869 183.828 35.3804 183.69 35.1987C183.555 35.0171 183.388 34.8735 183.189 34.7681C182.99 34.6626 182.761 34.6099 182.503 34.6099C182.246 34.6099 182.017 34.6626 181.818 34.7681C181.622 34.8735 181.455 35.0171 181.317 35.1987C181.182 35.3804 181.08 35.5869 181.009 35.8184C180.942 36.0498 180.908 36.2944 180.908 36.5522ZM188.805 32.1753H189.258C189.258 32.395 189.218 32.5781 189.139 32.7246C189.063 32.8711 188.955 32.9897 188.814 33.0806C188.673 33.1714 188.508 33.2432 188.317 33.2959C188.13 33.3457 187.925 33.3882 187.702 33.4233C187.43 33.4644 187.179 33.5537 186.951 33.6914C186.725 33.8291 186.532 34.0181 186.371 34.2583C186.209 34.4956 186.088 34.79 186.006 35.1416C185.927 35.4902 185.895 35.8989 185.909 36.3677V36.7764H185.457V36.3677C185.457 35.8521 185.506 35.395 185.606 34.9966C185.708 34.5952 185.854 34.2524 186.041 33.9683C186.231 33.6841 186.457 33.4585 186.718 33.2915C186.981 33.1216 187.273 33.0103 187.592 32.9575C187.891 32.9106 188.128 32.8535 188.304 32.7861C188.483 32.7188 188.61 32.6353 188.687 32.5356C188.766 32.436 188.805 32.3159 188.805 32.1753ZM187.636 34.5571C187.947 34.5571 188.227 34.6099 188.476 34.7153C188.725 34.8208 188.937 34.9702 189.113 35.1636C189.292 35.354 189.428 35.5796 189.521 35.8403C189.618 36.0981 189.667 36.3809 189.667 36.6885V36.8291C189.667 37.1572 189.617 37.459 189.517 37.7344C189.42 38.0098 189.28 38.2485 189.095 38.4507C188.914 38.6528 188.692 38.8096 188.432 38.9209C188.174 39.0322 187.885 39.0879 187.566 39.0879C187.244 39.0879 186.954 39.0322 186.696 38.9209C186.438 38.8096 186.217 38.6528 186.032 38.4507C185.848 38.2485 185.706 38.0098 185.606 37.7344C185.506 37.459 185.457 37.1572 185.457 36.8291V36.6885C185.457 36.6035 185.465 36.52 185.483 36.438C185.503 36.356 185.528 36.2754 185.558 36.1963C185.587 36.1143 185.616 36.0337 185.646 35.9546C185.748 35.688 185.893 35.4507 186.081 35.2427C186.268 35.0317 186.492 34.8647 186.753 34.7417C187.017 34.6187 187.311 34.5571 187.636 34.5571ZM187.557 35.0054C187.214 35.0054 186.926 35.0845 186.691 35.2427C186.46 35.3979 186.284 35.6045 186.164 35.8623C186.044 36.1172 185.984 36.3926 185.984 36.6885V36.8291C185.984 37.0723 186.018 37.3022 186.085 37.519C186.152 37.7358 186.252 37.9292 186.384 38.0991C186.519 38.2661 186.684 38.3979 186.88 38.4946C187.077 38.5913 187.305 38.6396 187.566 38.6396C187.824 38.6396 188.051 38.5913 188.247 38.4946C188.443 38.3979 188.607 38.2661 188.739 38.0991C188.871 37.9292 188.971 37.7358 189.038 37.519C189.105 37.3022 189.139 37.0723 189.139 36.8291V36.6885C189.139 36.4658 189.105 36.2534 189.038 36.0513C188.971 35.8491 188.87 35.6704 188.735 35.5151C188.603 35.3569 188.438 35.2324 188.238 35.1416C188.042 35.0508 187.815 35.0054 187.557 35.0054ZM192.088 38.5254L193.569 34.2451H194.136L192.123 39.7646C192.082 39.873 192.029 39.9932 191.965 40.125C191.903 40.2568 191.821 40.3828 191.719 40.5029C191.619 40.626 191.493 40.7256 191.341 40.8018C191.191 40.8809 191.008 40.9204 190.792 40.9204C190.736 40.9204 190.664 40.9131 190.576 40.8984C190.491 40.8867 190.43 40.875 190.392 40.8633L190.387 40.4194C190.419 40.4282 190.466 40.4355 190.528 40.4414C190.589 40.4473 190.632 40.4502 190.655 40.4502C190.846 40.4502 191.005 40.418 191.134 40.3535C191.266 40.2891 191.376 40.1924 191.464 40.0635C191.552 39.9375 191.629 39.7793 191.697 39.5889L192.088 38.5254ZM190.704 34.2451L192.22 38.3276L192.36 38.877L191.978 39.0923L190.132 34.2451H190.704ZM195.511 38.1475L198.082 34.2451H198.609V39H198.082V35.0977L195.511 39H194.993V34.2451H195.511V38.1475ZM197.599 32.54H198.047C198.047 32.7598 197.996 32.9546 197.893 33.1245C197.793 33.2944 197.648 33.4277 197.458 33.5244C197.268 33.6211 197.042 33.6694 196.781 33.6694C196.389 33.6694 196.078 33.564 195.85 33.353C195.624 33.1421 195.511 32.8711 195.511 32.54H195.955C195.955 32.7422 196.017 32.918 196.14 33.0674C196.266 33.2139 196.479 33.2871 196.781 33.2871C197.074 33.2871 197.284 33.2124 197.41 33.063C197.536 32.9136 197.599 32.7393 197.599 32.54ZM205.438 34.2451V34.7021H202.657V34.2451H205.438ZM202.775 34.2451V39H202.252V34.2451H202.775ZM205.869 34.2451V39H205.342V34.2451H205.869ZM207.798 35.1592V40.8281H207.271V34.2451H207.763L207.798 35.1592ZM211.103 36.5786V36.6709C211.103 37.0254 211.062 37.3506 210.98 37.6465C210.898 37.9424 210.779 38.1987 210.624 38.4155C210.472 38.6294 210.283 38.7949 210.057 38.9121C209.832 39.0293 209.575 39.0879 209.288 39.0879C209.004 39.0879 208.75 39.0439 208.528 38.9561C208.305 38.8682 208.113 38.7437 207.952 38.5825C207.794 38.4185 207.667 38.228 207.57 38.0112C207.476 37.7915 207.41 37.5513 207.372 37.2905V36.0732C207.416 35.7861 207.488 35.5254 207.587 35.291C207.687 35.0566 207.814 34.8545 207.97 34.6846C208.128 34.5146 208.315 34.3843 208.532 34.2935C208.749 34.2026 208.997 34.1572 209.275 34.1572C209.565 34.1572 209.823 34.2144 210.048 34.3286C210.277 34.4399 210.469 34.6025 210.624 34.8164C210.782 35.0273 210.901 35.2822 210.98 35.5811C211.062 35.877 211.103 36.2095 211.103 36.5786ZM210.576 36.6709V36.5786C210.576 36.3003 210.546 36.0425 210.488 35.8052C210.432 35.5679 210.346 35.3613 210.229 35.1855C210.114 35.0068 209.968 34.8677 209.789 34.7681C209.613 34.6685 209.404 34.6187 209.161 34.6187C208.909 34.6187 208.693 34.6611 208.515 34.7461C208.339 34.8281 208.192 34.938 208.075 35.0757C207.958 35.2104 207.866 35.3584 207.798 35.5195C207.731 35.6807 207.681 35.8389 207.649 35.9941V37.396C207.705 37.6187 207.794 37.8252 207.917 38.0156C208.04 38.2031 208.204 38.354 208.409 38.4683C208.617 38.5796 208.871 38.6353 209.169 38.6353C209.41 38.6353 209.618 38.5854 209.793 38.4858C209.969 38.3862 210.114 38.2471 210.229 38.0684C210.346 37.8896 210.432 37.6816 210.488 37.4443C210.546 37.207 210.576 36.9492 210.576 36.6709ZM214.109 39.0879C213.798 39.0879 213.513 39.0308 213.252 38.9165C212.994 38.8022 212.769 38.6411 212.575 38.4331C212.385 38.2251 212.237 37.979 212.131 37.6948C212.029 37.4077 211.978 37.0942 211.978 36.7544V36.5654C211.978 36.1992 212.032 35.8682 212.14 35.5723C212.249 35.2764 212.398 35.0229 212.588 34.812C212.779 34.6011 212.996 34.4399 213.239 34.3286C213.485 34.2144 213.743 34.1572 214.012 34.1572C214.314 34.1572 214.582 34.2114 214.816 34.3198C215.051 34.4253 215.247 34.5762 215.405 34.7725C215.566 34.9658 215.688 35.1958 215.77 35.4624C215.852 35.7261 215.893 36.0176 215.893 36.3369V36.6577H212.294V36.2095H215.37V36.1479C215.364 35.8813 215.31 35.6323 215.208 35.4009C215.108 35.1665 214.958 34.9761 214.759 34.8296C214.56 34.6831 214.311 34.6099 214.012 34.6099C213.79 34.6099 213.584 34.6567 213.397 34.7505C213.212 34.8442 213.053 34.979 212.918 35.1548C212.786 35.3276 212.684 35.5342 212.61 35.7744C212.54 36.0117 212.505 36.2754 212.505 36.5654V36.7544C212.505 37.0181 212.543 37.2642 212.619 37.4927C212.698 37.7183 212.81 37.9175 212.953 38.0903C213.1 38.2632 213.272 38.3979 213.472 38.4946C213.671 38.5913 213.891 38.6396 214.131 38.6396C214.412 38.6396 214.661 38.5884 214.878 38.4858C215.095 38.3804 215.29 38.2148 215.462 37.9893L215.792 38.2441C215.689 38.3965 215.561 38.5371 215.405 38.666C215.253 38.7949 215.07 38.8975 214.856 38.9736C214.642 39.0498 214.393 39.0879 214.109 39.0879ZM217.774 34.2451H218.297L218.218 35.959C218.197 36.416 218.146 36.813 218.064 37.1499C217.985 37.4839 217.887 37.7695 217.77 38.0068C217.652 38.2412 217.523 38.439 217.383 38.6001C217.245 38.7583 217.104 38.8916 216.961 39H216.675L216.684 38.5518L216.816 38.5474C216.901 38.4448 216.989 38.3291 217.08 38.2002C217.173 38.0684 217.263 37.9072 217.348 37.7168C217.433 37.5264 217.506 37.2891 217.567 37.0049C217.629 36.7207 217.67 36.3721 217.69 35.959L217.774 34.2451ZM217.945 34.2451H220.578V39H220.055V34.7373H217.945V34.2451ZM216.473 38.5474H221.074V40.3975H220.547V39H216.974V40.3975H216.473V38.5474ZM225.315 34.2451V34.7021H222.907V34.2451H225.315ZM225.741 34.2451V39H225.218V34.2451H225.741ZM222.766 34.2451H223.289L223.184 36.4731C223.166 36.8335 223.137 37.1528 223.096 37.4312C223.058 37.7095 223.005 37.9482 222.938 38.1475C222.87 38.3438 222.784 38.5049 222.678 38.6309C222.576 38.7568 222.451 38.8506 222.305 38.9121C222.158 38.9707 221.987 39 221.791 39H221.593V38.5254L221.755 38.521C221.881 38.5151 221.991 38.4888 222.085 38.4419C222.182 38.395 222.264 38.3203 222.331 38.2178C222.401 38.1152 222.458 37.9805 222.502 37.8135C222.549 37.6465 222.586 37.4429 222.612 37.2026C222.642 36.9595 222.664 36.6738 222.678 36.3457L222.766 34.2451ZM226.871 36.6973V36.5522C226.871 36.2065 226.92 35.8872 227.02 35.5942C227.12 35.3013 227.262 35.0479 227.446 34.834C227.634 34.6201 227.858 34.4546 228.119 34.3374C228.379 34.2173 228.669 34.1572 228.989 34.1572C229.311 34.1572 229.603 34.2173 229.863 34.3374C230.124 34.4546 230.348 34.6201 230.536 34.834C230.723 35.0479 230.867 35.3013 230.966 35.5942C231.066 35.8872 231.116 36.2065 231.116 36.5522V36.6973C231.116 37.043 231.066 37.3623 230.966 37.6553C230.867 37.9453 230.723 38.1973 230.536 38.4111C230.351 38.625 230.128 38.792 229.868 38.9121C229.607 39.0293 229.317 39.0879 228.998 39.0879C228.675 39.0879 228.384 39.0293 228.123 38.9121C227.862 38.792 227.638 38.625 227.451 38.4111C227.263 38.1973 227.12 37.9453 227.02 37.6553C226.92 37.3623 226.871 37.043 226.871 36.6973ZM227.394 36.5522V36.6973C227.394 36.958 227.429 37.2056 227.499 37.4399C227.569 37.6714 227.672 37.8779 227.807 38.0596C227.941 38.2383 228.108 38.3789 228.308 38.4814C228.507 38.584 228.737 38.6353 228.998 38.6353C229.255 38.6353 229.482 38.584 229.679 38.4814C229.878 38.3789 230.045 38.2383 230.18 38.0596C230.314 37.8779 230.416 37.6714 230.483 37.4399C230.553 37.2056 230.588 36.958 230.588 36.6973V36.5522C230.588 36.2944 230.553 36.0498 230.483 35.8184C230.416 35.5869 230.313 35.3804 230.175 35.1987C230.041 35.0171 229.874 34.8735 229.674 34.7681C229.475 34.6626 229.247 34.6099 228.989 34.6099C228.731 34.6099 228.502 34.6626 228.303 34.7681C228.107 34.8735 227.94 35.0171 227.802 35.1987C227.667 35.3804 227.565 35.5869 227.495 35.8184C227.427 36.0498 227.394 36.2944 227.394 36.5522ZM233.678 36.8027L231.749 34.2451H232.381L233.946 36.3281H234.825L234.776 36.8027H233.678ZM233.994 36.75L232.197 39H231.529L233.665 36.3457L233.994 36.75ZM235.106 34.2451V39H234.583V34.2451H235.106ZM237.954 34.2451L236.016 36.8027H234.926L234.869 36.3281H235.752L237.312 34.2451H237.954ZM237.501 39L235.699 36.75L236.033 36.3457L238.169 39H237.501ZM239.571 38.1475L242.142 34.2451H242.669V39H242.142V35.0977L239.571 39H239.052V34.2451H239.571V38.1475ZM245.758 34.2451V39H245.235V34.2451H245.758ZM247.49 34.2451V34.6934H243.565V34.2451H247.49ZM248.751 35.9678H250.302C250.677 35.9678 250.994 36.0337 251.251 36.1655C251.509 36.2944 251.704 36.4731 251.836 36.7017C251.971 36.9302 252.038 37.188 252.038 37.4751C252.038 37.6919 252 37.894 251.924 38.0815C251.851 38.2661 251.739 38.4272 251.59 38.5649C251.443 38.7026 251.262 38.8096 251.045 38.8857C250.831 38.9619 250.583 39 250.302 39H248.417V34.2451H248.94V38.5474H250.302C250.592 38.5474 250.827 38.4976 251.005 38.3979C251.184 38.2954 251.313 38.1636 251.392 38.0024C251.474 37.8413 251.515 37.6699 251.515 37.4883C251.515 37.3096 251.474 37.1396 251.392 36.9785C251.313 36.8145 251.184 36.6812 251.005 36.5786C250.827 36.4731 250.592 36.4204 250.302 36.4204H248.751V35.9678Z" fill="black"/>
</svg>
